<?xml version="1.0" standalone="no"?>
<!DOCTYPE svg PUBLIC "-//W3C//DTD SVG 20010904//EN"
 "http://www.w3.org/TR/2001/REC-SVG-20010904/DTD/svg10.dtd">
<svg version="1.0" xmlns="http://www.w3.org/2000/svg"
 width="260.000000pt" height="260.000000pt" viewBox="0 0 260.000000 260.000000"
 preserveAspectRatio="xMidYMid meet">
<metadata>
Created by potrace 1.11, written by Peter Selinger 2001-2013
</metadata>
<g transform="translate(0.000000,260.000000) scale(0.100000,-0.100000)"
fill="#000000" stroke="none">
<path d="M470 1300 l0 -961 548 2 c566 1 605 3 729 45 147 49 269 152 328 275
42 90 54 150 50 249 -3 97 -10 122 -46 190 -26 48 -62 91 -131 155 -42 39
-130 71 -273 101 -28 6 -26 7 25 20 208 49 339 204 342 407 4 216 -128 375
-372 448 -73 22 -88 23 -637 27 l-563 3 0 -961z m827 569 c112 -5 192 -79 193
-176 0 -29 -5 -65 -12 -80 -16 -38 -68 -93 -88 -93 -9 0 -22 -6 -28 -12 -16
-16 -311 -25 -321 -10 -5 8 -6 330 -2 364 1 4 27 8 59 10 55 3 91 2 199 -3z
m134 -731 c78 -36 117 -92 124 -183 2 -31 -18 -103 -38 -132 -23 -35 -92 -77
-142 -87 -25 -5 -246 -10 -320 -7 -19 1 -20 7 -18 218 0 120 1 219 2 220 1 1
76 1 169 -1 156 -2 171 -3 223 -28z"/>
</g>
</svg>
